<svg width="343" height="488" viewBox="0 0 343 488" fill="none" xmlns="http://www.w3.org/2000/svg">
<path fill-rule="evenodd" clip-rule="evenodd" d="M16 0C7.16344 0 0 7.16345 0 16V281C5.52285 281 10 285.477 10 291C10 296.523 5.52285 301 0 301V472C0 480.837 7.16345 488 16 488H327C335.837 488 343 480.837 343 472V301C337.477 301 333 296.523 333 291C333 285.477 337.477 281 343 281V16C343 7.16344 335.837 0 327 0H16Z" fill="white"/>
<path fill-rule="evenodd" clip-rule="evenodd" d="M19.4919 291L17 291L17 290L19.4919 290L19.4919 291ZM29.4597 291L24.4758 291L24.4758 290L29.4597 290L29.4597 291ZM39.4274 291L34.4435 291L34.4435 290L39.4274 290L39.4274 291ZM49.3952 291L44.4113 291L44.4113 290L49.3952 290L49.3952 291ZM59.3629 291L54.379 291L54.379 290L59.3629 290L59.3629 291ZM69.3306 291L64.3468 291L64.3468 290L69.3306 290L69.3306 291ZM79.2984 291L74.3145 291L74.3145 290L79.2984 290L79.2984 291ZM89.2661 291L84.2823 291L84.2823 290L89.2661 290L89.2661 291ZM99.2339 291L94.25 291L94.25 290L99.2339 290L99.2339 291ZM109.202 291L104.218 291L104.218 290L109.202 290L109.202 291ZM119.169 291L114.185 291L114.185 290L119.169 290L119.169 291ZM129.137 291L124.153 291L124.153 290L129.137 290L129.137 291ZM139.105 291L134.121 291L134.121 290L139.105 290L139.105 291ZM149.073 291L144.089 291L144.089 290L149.073 290L149.073 291ZM159.04 291L154.056 291L154.056 290L159.04 290L159.04 291ZM169.008 291L164.024 291L164.024 290L169.008 290L169.008 291ZM178.976 291L173.992 291L173.992 290L178.976 290L178.976 291ZM188.944 291L183.96 291L183.96 290L188.944 290L188.944 291ZM198.911 291L193.927 291L193.927 290L198.911 290L198.911 291ZM208.879 291L203.895 291L203.895 290L208.879 290L208.879 291ZM218.847 291L213.863 291L213.863 290L218.847 290L218.847 291ZM228.815 291L223.831 291L223.831 290L228.815 290L228.815 291ZM238.782 291L233.798 291L233.798 290L238.782 290L238.782 291ZM248.75 291L243.766 291L243.766 290L248.75 290L248.75 291ZM258.718 291L253.734 291L253.734 290L258.718 290L258.718 291ZM268.686 291L263.702 291L263.702 290L268.686 290L268.686 291ZM278.653 291L273.669 291L273.669 290L278.653 290L278.653 291ZM288.621 291L283.637 291L283.637 290L288.621 290L288.621 291ZM298.589 291L293.605 291L293.605 290L298.589 290L298.589 291ZM308.556 291L303.573 291L303.573 290L308.556 290L308.556 291ZM318.524 291L313.54 291L313.54 290L318.524 290L318.524 291ZM326 291L323.508 291L323.508 290L326 290L326 291Z" fill="#D1D4DB"/>
</svg>
