<svg width="49" height="48" viewBox="0 0 49 48" fill="none" xmlns="http://www.w3.org/2000/svg">
<circle cx="24.5" cy="24" r="24" fill="white"/>
<path fill-rule="evenodd" clip-rule="evenodd" d="M18.7897 16.8071C18.3803 16.3976 17.7165 16.3976 17.3071 16.8071C16.8976 17.2165 16.8976 17.8803 17.3071 18.2897L23.0174 24L17.3071 29.7103C16.8976 30.1197 16.8976 30.7835 17.3071 31.1929C17.7165 31.6024 18.3803 31.6024 18.7897 31.1929L24.5 25.4826L30.2103 31.1929C30.6197 31.6024 31.2835 31.6024 31.6929 31.1929C32.1024 30.7835 32.1024 30.1197 31.6929 29.7103L25.9826 24L31.6929 18.2897C32.1024 17.8803 32.1024 17.2165 31.6929 16.8071C31.2835 16.3976 30.6197 16.3976 30.2103 16.8071L24.5 22.5174L18.7897 16.8071Z" fill="#AAB2C0"/>
</svg>
